<svg xmlns="http://www.w3.org/2000/svg" xmlns:xlink="http://www.w3.org/1999/xlink" width="193.28" height="97.28" baseProfile="tiny" version="1.2" viewBox="0 0 604 304"><title>Flipper Zero</title><desc>Generated with Qt</desc><g fill="none" fill-rule="evenodd" stroke="#000" stroke-linecap="square" stroke-linejoin="bevel" stroke-width="1"><g fill="#fafafa" fill-opacity="1" stroke="#000" stroke-linecap="round" stroke-linejoin="round" stroke-opacity="1" stroke-width=".72" font-family="Noto Sans" font-size="41.667" font-style="normal" font-weight="400"><path fill-rule="evenodd" d="M182.88,95.1307 L177.12,95.1307 L177.12,77.6693 L182.88,77.6693 L182.88,95.1307" transform="matrix(4.16438,0,0,4.16438,-478.822,-266.521)" vector-effect="none"/></g><g fill="none" stroke="#000" stroke-linecap="round" stroke-linejoin="round" stroke-opacity="1" stroke-width=".45" font-family="Noto Sans" font-size="41.667" font-style="normal" font-weight="400" transform="matrix(4.16438,0,0,4.16438,-478.822,-266.521)"><polyline fill="none" points="180 100.8 180 95.131" vector-effect="none"/><polyline fill="none" points="180 72 180 77.669" vector-effect="none"/></g><g fill="#fafafa" fill-opacity="1" stroke="#000" stroke-linecap="round" stroke-linejoin="round" stroke-opacity="1" stroke-width=".72" font-family="Noto Sans" font-size="41.667" font-style="normal" font-weight="400"><path fill-rule="evenodd" d="M133.2,90 L136.8,82.8 L140.4,90 L133.2,90" transform="matrix(4.16438,0,0,4.16438,-478.822,-266.521)" vector-effect="none"/></g><g fill="#fafafa" fill-opacity="1" stroke="#000" stroke-linecap="round" stroke-linejoin="round" stroke-opacity="1" stroke-width=".72" font-family="Noto Sans" font-size="41.667" font-style="normal" font-weight="400"><path fill-rule="evenodd" d="M140.4,82.8 L133.2,82.8" transform="matrix(4.16438,0,0,4.16438,-478.822,-266.521)" vector-effect="none"/></g><g fill="#fafafa" fill-opacity="1" stroke="#000" stroke-linecap="round" stroke-linejoin="round" stroke-opacity="1" stroke-width=".45" font-family="Noto Sans" font-size="41.667" font-style="normal" font-weight="400"><path fill-rule="evenodd" d="M136.8,90 L136.8,82.8" transform="matrix(4.16438,0,0,4.16438,-478.822,-266.521)" vector-effect="none"/></g><g fill="#fafafa" fill-opacity="1" stroke="#000" stroke-linecap="round" stroke-linejoin="round" stroke-opacity="1" stroke-width=".432" font-family="Noto Sans" font-size="41.667" font-style="normal" font-weight="400"><path fill-rule="evenodd" d="M141.66,87.84 L145.62,83.88" transform="matrix(4.16438,0,0,4.16438,-478.822,-266.521)" vector-effect="none"/></g><g fill="#fafafa" fill-opacity="1" stroke="#000" stroke-linecap="round" stroke-linejoin="round" stroke-opacity="1" stroke-width=".432" font-family="Noto Sans" font-size="41.667" font-style="normal" font-weight="400"><path fill-rule="evenodd" d="M140.4,85.5 L144.36,81.54" transform="matrix(4.16438,0,0,4.16438,-478.822,-266.521)" vector-effect="none"/></g><g fill="#000" fill-opacity="1" stroke="#000" stroke-linecap="round" stroke-linejoin="round" stroke-opacity="1" stroke-width=".432" font-family="Noto Sans" font-size="41.667" font-style="normal" font-weight="400"><path fill-rule="evenodd" d="M145.62,83.88 L144.54,86.4 L143.1,84.96 L145.62,83.88" transform="matrix(4.16438,0,0,4.16438,-478.822,-266.521)" vector-effect="none"/></g><g fill="#000" fill-opacity="1" stroke="#000" stroke-linecap="round" stroke-linejoin="round" stroke-opacity="1" stroke-width=".432" font-family="Noto Sans" font-size="41.667" font-style="normal" font-weight="400"><path fill-rule="evenodd" d="M144.36,81.54 L143.28,84.06 L141.84,82.62 L144.36,81.54" transform="matrix(4.16438,0,0,4.16438,-478.822,-266.521)" vector-effect="none"/></g><g fill="none" stroke="#000" stroke-linecap="round" stroke-linejoin="round" stroke-opacity="1" stroke-width=".45" font-family="Noto Sans" font-size="41.667" font-style="normal" font-weight="400" transform="matrix(4.16438,0,0,4.16438,-478.822,-266.521)"><polyline fill="none" points="136.8 93.6 136.8 90" vector-effect="none"/><polyline fill="none" points="136.8 79.2 136.8 82.8" vector-effect="none"/></g><g fill="#fafafa" fill-opacity="1" stroke="#000" stroke-linecap="round" stroke-linejoin="round" stroke-opacity="1" stroke-width=".709" font-family="Noto Sans" font-size="41.667" font-style="normal" font-weight="400"><path fill-rule="evenodd" d="M122.4,136.8 L122.4,122.4 L259.2,122.4 L259.2,136.8 L122.4,136.8" transform="matrix(4.16438,0,0,4.16438,-478.822,-266.521)" vector-effect="none"/></g><g fill="#000" fill-opacity="1" stroke="#000" stroke-linecap="round" stroke-linejoin="round" stroke-opacity="1" stroke-width=".709" font-family="Noto Sans" font-size="41.667" font-style="normal" font-weight="400"><path fill-rule="evenodd" d="M128.999,127.349 L128.999,124.651 L130.201,124.651 L130.201,127.349 L128.999,127.349" transform="matrix(4.16438,0,0,4.16438,-478.822,-266.521)" vector-effect="none"/></g><g fill="#000" fill-opacity="1" stroke="#000" stroke-linecap="round" stroke-linejoin="round" stroke-opacity="1" stroke-width=".709" font-family="Noto Sans" font-size="41.667" font-style="normal" font-weight="400"><path fill-rule="evenodd" d="M136.199,127.349 L136.199,124.651 L137.401,124.651 L137.401,127.349 L136.199,127.349" transform="matrix(4.16438,0,0,4.16438,-478.822,-266.521)" vector-effect="none"/></g><g fill="#000" fill-opacity="1" stroke="#000" stroke-linecap="round" stroke-linejoin="round" stroke-opacity="1" stroke-width=".709" font-family="Noto Sans" font-size="41.667" font-style="normal" font-weight="400"><path fill-rule="evenodd" d="M143.399,127.349 L143.399,124.651 L144.601,124.651 L144.601,127.349 L143.399,127.349" transform="matrix(4.16438,0,0,4.16438,-478.822,-266.521)" vector-effect="none"/></g><g fill="#000" fill-opacity="1" stroke="#000" stroke-linecap="round" stroke-linejoin="round" stroke-opacity="1" stroke-width=".709" font-family="Noto Sans" font-size="41.667" font-style="normal" font-weight="400"><path fill-rule="evenodd" d="M150.599,127.349 L150.599,124.651 L151.801,124.651 L151.801,127.349 L150.599,127.349" transform="matrix(4.16438,0,0,4.16438,-478.822,-266.521)" vector-effect="none"/></g><g fill="#000" fill-opacity="1" stroke="#000" stroke-linecap="round" stroke-linejoin="round" stroke-opacity="1" stroke-width=".709" font-family="Noto Sans" font-size="41.667" font-style="normal" font-weight="400"><path fill-rule="evenodd" d="M157.799,127.349 L157.799,124.651 L159.001,124.651 L159.001,127.349 L157.799,127.349" transform="matrix(4.16438,0,0,4.16438,-478.822,-266.521)" vector-effect="none"/></g><g fill="#000" fill-opacity="1" stroke="#000" stroke-linecap="round" stroke-linejoin="round" stroke-opacity="1" stroke-width=".709" font-family="Noto Sans" font-size="41.667" font-style="normal" font-weight="400"><path fill-rule="evenodd" d="M164.999,127.349 L164.999,124.651 L166.201,124.651 L166.201,127.349 L164.999,127.349" transform="matrix(4.16438,0,0,4.16438,-478.822,-266.521)" vector-effect="none"/></g><g fill="#000" fill-opacity="1" stroke="#000" stroke-linecap="round" stroke-linejoin="round" stroke-opacity="1" stroke-width=".709" font-family="Noto Sans" font-size="41.667" font-style="normal" font-weight="400"><path fill-rule="evenodd" d="M172.199,127.349 L172.199,124.651 L173.401,124.651 L173.401,127.349 L172.199,127.349" transform="matrix(4.16438,0,0,4.16438,-478.822,-266.521)" vector-effect="none"/></g><g fill="#000" fill-opacity="1" stroke="#000" stroke-linecap="round" stroke-linejoin="round" stroke-opacity="1" stroke-width=".709" font-family="Noto Sans" font-size="41.667" font-style="normal" font-weight="400"><path fill-rule="evenodd" d="M179.399,127.349 L179.399,124.651 L180.601,124.651 L180.601,127.349 L179.399,127.349" transform="matrix(4.16438,0,0,4.16438,-478.822,-266.521)" vector-effect="none"/></g><g fill="#000" fill-opacity="1" stroke="#000" stroke-linecap="round" stroke-linejoin="round" stroke-opacity="1" stroke-width=".709" font-family="Noto Sans" font-size="41.667" font-style="normal" font-weight="400"><path fill-rule="evenodd" d="M186.599,127.349 L186.599,124.651 L187.801,124.651 L187.801,127.349 L186.599,127.349" transform="matrix(4.16438,0,0,4.16438,-478.822,-266.521)" vector-effect="none"/></g><g fill="#000" fill-opacity="1" stroke="#000" stroke-linecap="round" stroke-linejoin="round" stroke-opacity="1" stroke-width=".709" font-family="Noto Sans" font-size="41.667" font-style="normal" font-weight="400"><path fill-rule="evenodd" d="M193.799,127.349 L193.799,124.651 L195.001,124.651 L195.001,127.349 L193.799,127.349" transform="matrix(4.16438,0,0,4.16438,-478.822,-266.521)" vector-effect="none"/></g><g fill="#000" fill-opacity="1" stroke="#000" stroke-linecap="round" stroke-linejoin="round" stroke-opacity="1" stroke-width=".709" font-family="Noto Sans" font-size="41.667" font-style="normal" font-weight="400"><path fill-rule="evenodd" d="M200.999,127.349 L200.999,124.651 L202.201,124.651 L202.201,127.349 L200.999,127.349" transform="matrix(4.16438,0,0,4.16438,-478.822,-266.521)" vector-effect="none"/></g><g fill="#000" fill-opacity="1" stroke="#000" stroke-linecap="round" stroke-linejoin="round" stroke-opacity="1" stroke-width=".709" font-family="Noto Sans" font-size="41.667" font-style="normal" font-weight="400"><path fill-rule="evenodd" d="M208.199,127.349 L208.199,124.651 L209.401,124.651 L209.401,127.349 L208.199,127.349" transform="matrix(4.16438,0,0,4.16438,-478.822,-266.521)" vector-effect="none"/></g><g fill="#000" fill-opacity="1" stroke="#000" stroke-linecap="round" stroke-linejoin="round" stroke-opacity="1" stroke-width=".709" font-family="Noto Sans" font-size="41.667" font-style="normal" font-weight="400"><path fill-rule="evenodd" d="M215.399,127.349 L215.399,124.651 L216.601,124.651 L216.601,127.349 L215.399,127.349" transform="matrix(4.16438,0,0,4.16438,-478.822,-266.521)" vector-effect="none"/></g><g fill="#000" fill-opacity="1" stroke="#000" stroke-linecap="round" stroke-linejoin="round" stroke-opacity="1" stroke-width=".709" font-family="Noto Sans" font-size="41.667" font-style="normal" font-weight="400"><path fill-rule="evenodd" d="M222.599,127.349 L222.599,124.651 L223.801,124.651 L223.801,127.349 L222.599,127.349" transform="matrix(4.16438,0,0,4.16438,-478.822,-266.521)" vector-effect="none"/></g><g fill="#000" fill-opacity="1" stroke="#000" stroke-linecap="round" stroke-linejoin="round" stroke-opacity="1" stroke-width=".709" font-family="Noto Sans" font-size="41.667" font-style="normal" font-weight="400"><path fill-rule="evenodd" d="M229.799,127.349 L229.799,124.651 L231.001,124.651 L231.001,127.349 L229.799,127.349" transform="matrix(4.16438,0,0,4.16438,-478.822,-266.521)" vector-effect="none"/></g><g fill="#000" fill-opacity="1" stroke="#000" stroke-linecap="round" stroke-linejoin="round" stroke-opacity="1" stroke-width=".709" font-family="Noto Sans" font-size="41.667" font-style="normal" font-weight="400"><path fill-rule="evenodd" d="M236.999,127.349 L236.999,124.651 L238.201,124.651 L238.201,127.349 L236.999,127.349" transform="matrix(4.16438,0,0,4.16438,-478.822,-266.521)" vector-effect="none"/></g><g fill="#000" fill-opacity="1" stroke="#000" stroke-linecap="round" stroke-linejoin="round" stroke-opacity="1" stroke-width=".709" font-family="Noto Sans" font-size="41.667" font-style="normal" font-weight="400"><path fill-rule="evenodd" d="M244.199,127.349 L244.199,124.651 L245.401,124.651 L245.401,127.349 L244.199,127.349" transform="matrix(4.16438,0,0,4.16438,-478.822,-266.521)" vector-effect="none"/></g><g fill="#000" fill-opacity="1" stroke="#000" stroke-linecap="round" stroke-linejoin="round" stroke-opacity="1" stroke-width=".709" font-family="Noto Sans" font-size="41.667" font-style="normal" font-weight="400"><path fill-rule="evenodd" d="M251.399,127.349 L251.399,124.651 L252.601,124.651 L252.601,127.349 L251.399,127.349" transform="matrix(4.16438,0,0,4.16438,-478.822,-266.521)" vector-effect="none"/></g><g fill="none" stroke="#000" stroke-linecap="round" stroke-linejoin="round" stroke-opacity="1" stroke-width=".45" font-family="Noto Sans" font-size="41.667" font-style="normal" font-weight="400" transform="matrix(4.16438,0,0,4.16438,-478.822,-266.521)"><polyline fill="none" points="244.8 115.2 244.8 126" vector-effect="none"/></g><g fill="none" stroke="#000" stroke-linecap="square" stroke-linejoin="bevel" stroke-opacity="1" stroke-width="1" font-family="Noto Sans" font-size="8" font-style="normal" font-weight="400"><text x="-9.125" y="3" fill="#000" fill-opacity="1" stroke="none" font-family="Noto Sans" font-size="8" font-style="normal" font-weight="400" transform="matrix(0,-2.45928,2.45928,0,540.619,273.184)" xml:space="preserve">17</text></g><g fill="none" stroke="#000" stroke-linecap="square" stroke-linejoin="bevel" stroke-opacity="0" stroke-width="1" font-family="Noto Sans" font-size="8" font-style="normal" font-weight="400" transform="matrix(0,-2.45928,2.45928,0,540.619,273.184)"><rect width="9.125" height="12" x="-9.125" y="-6"/></g><g fill="none" stroke="#000" stroke-linecap="round" stroke-linejoin="round" stroke-opacity="1" stroke-width=".45" font-family="Noto Sans" font-size="41.667" font-style="normal" font-weight="400" transform="matrix(4.16438,0,0,4.16438,-478.822,-266.521)"><polyline fill="none" points="187.2 115.2 187.2 126" vector-effect="none"/></g><g fill="none" stroke="#000" stroke-linecap="square" stroke-linejoin="bevel" stroke-opacity="1" stroke-width="1" font-family="Noto Sans" font-size="8" font-style="normal" font-weight="400"><text x="-4.563" y="3" fill="#000" fill-opacity="1" stroke="none" font-family="Noto Sans" font-size="8" font-style="normal" font-weight="400" transform="matrix(0,-2.45928,2.45928,0,300.751,273.184)" xml:space="preserve">9</text></g><g fill="none" stroke="#000" stroke-linecap="square" stroke-linejoin="bevel" stroke-opacity="0" stroke-width="1" font-family="Noto Sans" font-size="8" font-style="normal" font-weight="400" transform="matrix(0,-2.45928,2.45928,0,300.751,273.184)"><rect width="4.563" height="12" x="-4.563" y="-6"/></g><g fill="none" stroke="#000" stroke-linecap="round" stroke-linejoin="round" stroke-opacity="1" stroke-width=".45" font-family="Noto Sans" font-size="41.667" font-style="normal" font-weight="400" transform="matrix(4.16438,0,0,4.16438,-478.822,-266.521)"><polyline fill="none" points="144 115.2 144 126" vector-effect="none"/></g><g fill="none" stroke="#000" stroke-linecap="square" stroke-linejoin="bevel" stroke-opacity="1" stroke-width="1" font-family="Noto Sans" font-size="8" font-style="normal" font-weight="400"><text x="-4.563" y="3" fill="#000" fill-opacity="1" stroke="none" font-family="Noto Sans" font-size="8" font-style="normal" font-weight="400" transform="matrix(0,-2.45928,2.45928,0,120.849,273.184)" xml:space="preserve">3</text></g><g fill="none" stroke="#000" stroke-linecap="square" stroke-linejoin="bevel" stroke-opacity="0" stroke-width="1" font-family="Noto Sans" font-size="8" font-style="normal" font-weight="400" transform="matrix(0,-2.45928,2.45928,0,120.849,273.184)"><rect width="4.563" height="12" x="-4.563" y="-6"/></g><g fill="none" stroke="#000" stroke-linecap="round" stroke-linejoin="round" stroke-opacity="1" stroke-width=".45" font-family="Noto Sans" font-size="41.667" font-style="normal" font-weight="400" transform="matrix(4.16438,0,0,4.16438,-478.822,-266.521)"><polyline fill="none" points="223.2 115.2 223.2 126" vector-effect="none"/></g><g fill="none" stroke="#000" stroke-linecap="square" stroke-linejoin="bevel" stroke-opacity="1" stroke-width="1" font-family="Noto Sans" font-size="8" font-style="normal" font-weight="400"><text x="-9.125" y="3" fill="#000" fill-opacity="1" stroke="none" font-family="Noto Sans" font-size="8" font-style="normal" font-weight="400" transform="matrix(0,-2.45928,2.45928,0,450.668,273.184)" xml:space="preserve">14</text></g><g fill="none" stroke="#000" stroke-linecap="square" stroke-linejoin="bevel" stroke-opacity="0" stroke-width="1" font-family="Noto Sans" font-size="8" font-style="normal" font-weight="400" transform="matrix(0,-2.45928,2.45928,0,450.668,273.184)"><rect width="9.125" height="12" x="-9.125" y="-6"/></g><g fill="none" stroke="#000" stroke-linecap="round" stroke-linejoin="round" stroke-opacity="1" stroke-width=".45" font-family="Noto Sans" font-size="41.667" font-style="normal" font-weight="400" transform="matrix(4.16438,0,0,4.16438,-478.822,-266.521)"><polyline fill="none" points="165.6 115.2 165.6 126" vector-effect="none"/></g><g fill="none" stroke="#000" stroke-linecap="square" stroke-linejoin="bevel" stroke-opacity="1" stroke-width="1" font-family="Noto Sans" font-size="8" font-style="normal" font-weight="400"><text x="-4.563" y="3" fill="#000" fill-opacity="1" stroke="none" font-family="Noto Sans" font-size="8" font-style="normal" font-weight="400" transform="matrix(0,-2.45928,2.45928,0,210.8,273.184)" xml:space="preserve">6</text></g><g fill="none" stroke="#000" stroke-linecap="square" stroke-linejoin="bevel" stroke-opacity="0" stroke-width="1" font-family="Noto Sans" font-size="8" font-style="normal" font-weight="400" transform="matrix(0,-2.45928,2.45928,0,210.8,273.184)"><rect width="4.563" height="12" x="-4.563" y="-6"/></g><g fill="none" stroke="#000" stroke-linecap="round" stroke-linejoin="round" stroke-opacity="1" stroke-width=".45" font-family="Noto Sans" font-size="41.667" font-style="normal" font-weight="400" transform="matrix(4.16438,0,0,4.16438,-478.822,-266.521)"><polyline fill="none" points="216 115.2 216 126" vector-effect="none"/></g><g fill="none" stroke="#000" stroke-linecap="square" stroke-linejoin="bevel" stroke-opacity="1" stroke-width="1" font-family="Noto Sans" font-size="8" font-style="normal" font-weight="400"><text x="-9.125" y="3" fill="#000" fill-opacity="1" stroke="none" font-family="Noto Sans" font-size="8" font-style="normal" font-weight="400" transform="matrix(0,-2.45928,2.45928,0,420.685,273.184)" xml:space="preserve">13</text></g><g fill="none" stroke="#000" stroke-linecap="square" stroke-linejoin="bevel" stroke-opacity="0" stroke-width="1" font-family="Noto Sans" font-size="8" font-style="normal" font-weight="400" transform="matrix(0,-2.45928,2.45928,0,420.685,273.184)"><rect width="9.125" height="12" x="-9.125" y="-6"/></g><g fill="none" stroke="#000" stroke-linecap="round" stroke-linejoin="round" stroke-opacity="1" stroke-width=".45" font-family="Noto Sans" font-size="41.667" font-style="normal" font-weight="400" transform="matrix(4.16438,0,0,4.16438,-478.822,-266.521)"><polyline fill="none" points="158.4 115.2 158.4 126" vector-effect="none"/></g><g fill="none" stroke="#000" stroke-linecap="square" stroke-linejoin="bevel" stroke-opacity="1" stroke-width="1" font-family="Noto Sans" font-size="8" font-style="normal" font-weight="400"><text x="-4.563" y="3" fill="#000" fill-opacity="1" stroke="none" font-family="Noto Sans" font-size="8" font-style="normal" font-weight="400" transform="matrix(0,-2.45928,2.45928,0,180.816,273.184)" xml:space="preserve">5</text></g><g fill="none" stroke="#000" stroke-linecap="square" stroke-linejoin="bevel" stroke-opacity="0" stroke-width="1" font-family="Noto Sans" font-size="8" font-style="normal" font-weight="400" transform="matrix(0,-2.45928,2.45928,0,180.816,273.184)"><rect width="4.563" height="12" x="-4.563" y="-6"/></g><g fill="none" stroke="#000" stroke-linecap="round" stroke-linejoin="round" stroke-opacity="1" stroke-width=".45" font-family="Noto Sans" font-size="41.667" font-style="normal" font-weight="400" transform="matrix(4.16438,0,0,4.16438,-478.822,-266.521)"><polyline fill="none" points="230.4 115.2 230.4 126" vector-effect="none"/></g><g fill="none" stroke="#000" stroke-linecap="square" stroke-linejoin="bevel" stroke-opacity="1" stroke-width="1" font-family="Noto Sans" font-size="8" font-style="normal" font-weight="400"><text x="-9.125" y="3" fill="#000" fill-opacity="1" stroke="none" font-family="Noto Sans" font-size="8" font-style="normal" font-weight="400" transform="matrix(0,-2.45928,2.45928,0,480.652,273.184)" xml:space="preserve">15</text></g><g fill="none" stroke="#000" stroke-linecap="square" stroke-linejoin="bevel" stroke-opacity="0" stroke-width="1" font-family="Noto Sans" font-size="8" font-style="normal" font-weight="400" transform="matrix(0,-2.45928,2.45928,0,480.652,273.184)"><rect width="9.125" height="12" x="-9.125" y="-6"/></g><g fill="none" stroke="#000" stroke-linecap="round" stroke-linejoin="round" stroke-opacity="1" stroke-width=".45" font-family="Noto Sans" font-size="41.667" font-style="normal" font-weight="400" transform="matrix(4.16438,0,0,4.16438,-478.822,-266.521)"><polyline fill="none" points="136.8 115.2 136.8 126" vector-effect="none"/></g><g fill="none" stroke="#000" stroke-linecap="square" stroke-linejoin="bevel" stroke-opacity="1" stroke-width="1" font-family="Noto Sans" font-size="8" font-style="normal" font-weight="400"><text x="-4.563" y="3" fill="#000" fill-opacity="1" stroke="none" font-family="Noto Sans" font-size="8" font-style="normal" font-weight="400" transform="matrix(0,-2.45928,2.45928,0,90.8658,273.184)" xml:space="preserve">2</text></g><g fill="none" stroke="#000" stroke-linecap="square" stroke-linejoin="bevel" stroke-opacity="0" stroke-width="1" font-family="Noto Sans" font-size="8" font-style="normal" font-weight="400" transform="matrix(0,-2.45928,2.45928,0,90.8658,273.184)"><rect width="4.563" height="12" x="-4.563" y="-6"/></g><g fill="none" stroke="#000" stroke-linecap="round" stroke-linejoin="round" stroke-opacity="1" stroke-width=".45" font-family="Noto Sans" font-size="41.667" font-style="normal" font-weight="400" transform="matrix(4.16438,0,0,4.16438,-478.822,-266.521)"><polyline fill="none" points="237.6 115.2 237.6 126" vector-effect="none"/></g><g fill="none" stroke="#000" stroke-linecap="square" stroke-linejoin="bevel" stroke-opacity="1" stroke-width="1" font-family="Noto Sans" font-size="8" font-style="normal" font-weight="400"><text x="-9.125" y="3" fill="#000" fill-opacity="1" stroke="none" font-family="Noto Sans" font-size="8" font-style="normal" font-weight="400" transform="matrix(0,-2.45928,2.45928,0,510.636,273.184)" xml:space="preserve">16</text></g><g fill="none" stroke="#000" stroke-linecap="square" stroke-linejoin="bevel" stroke-opacity="0" stroke-width="1" font-family="Noto Sans" font-size="8" font-style="normal" font-weight="400" transform="matrix(0,-2.45928,2.45928,0,510.636,273.184)"><rect width="9.125" height="12" x="-9.125" y="-6"/></g><g fill="none" stroke="#000" stroke-linecap="round" stroke-linejoin="round" stroke-opacity="1" stroke-width=".45" font-family="Noto Sans" font-size="41.667" font-style="normal" font-weight="400" transform="matrix(4.16438,0,0,4.16438,-478.822,-266.521)"><polyline fill="none" points="151.2 115.2 151.2 126" vector-effect="none"/></g><g fill="none" stroke="#000" stroke-linecap="square" stroke-linejoin="bevel" stroke-opacity="1" stroke-width="1" font-family="Noto Sans" font-size="8" font-style="normal" font-weight="400"><text x="-4.563" y="3" fill="#000" fill-opacity="1" stroke="none" font-family="Noto Sans" font-size="8" font-style="normal" font-weight="400" transform="matrix(0,-2.45928,2.45928,0,150.833,273.184)" xml:space="preserve">4</text></g><g fill="none" stroke="#000" stroke-linecap="square" stroke-linejoin="bevel" stroke-opacity="0" stroke-width="1" font-family="Noto Sans" font-size="8" font-style="normal" font-weight="400" transform="matrix(0,-2.45928,2.45928,0,150.833,273.184)"><rect width="4.563" height="12" x="-4.563" y="-6"/></g><g fill="none" stroke="#000" stroke-linecap="round" stroke-linejoin="round" stroke-opacity="1" stroke-width=".45" font-family="Noto Sans" font-size="41.667" font-style="normal" font-weight="400" transform="matrix(4.16438,0,0,4.16438,-478.822,-266.521)"><polyline fill="none" points="180 115.2 180 126" vector-effect="none"/></g><g fill="none" stroke="#000" stroke-linecap="square" stroke-linejoin="bevel" stroke-opacity="1" stroke-width="1" font-family="Noto Sans" font-size="8" font-style="normal" font-weight="400"><text x="-4.563" y="3" fill="#000" fill-opacity="1" stroke="none" font-family="Noto Sans" font-size="8" font-style="normal" font-weight="400" transform="matrix(0,-2.45928,2.45928,0,270.767,273.184)" xml:space="preserve">8</text></g><g fill="none" stroke="#000" stroke-linecap="square" stroke-linejoin="bevel" stroke-opacity="0" stroke-width="1" font-family="Noto Sans" font-size="8" font-style="normal" font-weight="400" transform="matrix(0,-2.45928,2.45928,0,270.767,273.184)"><rect width="4.563" height="12" x="-4.563" y="-6"/></g><g fill="none" stroke="#000" stroke-linecap="round" stroke-linejoin="round" stroke-opacity="1" stroke-width=".45" font-family="Noto Sans" font-size="41.667" font-style="normal" font-weight="400" transform="matrix(4.16438,0,0,4.16438,-478.822,-266.521)"><polyline fill="none" points="194.4 115.2 194.4 126" vector-effect="none"/></g><g fill="none" stroke="#000" stroke-linecap="square" stroke-linejoin="bevel" stroke-opacity="1" stroke-width="1" font-family="Noto Sans" font-size="8" font-style="normal" font-weight="400"><text x="-9.125" y="3" fill="#000" fill-opacity="1" stroke="none" font-family="Noto Sans" font-size="8" font-style="normal" font-weight="400" transform="matrix(0,-2.45928,2.45928,0,330.734,273.184)" xml:space="preserve">10</text></g><g fill="none" stroke="#000" stroke-linecap="square" stroke-linejoin="bevel" stroke-opacity="0" stroke-width="1" font-family="Noto Sans" font-size="8" font-style="normal" font-weight="400" transform="matrix(0,-2.45928,2.45928,0,330.734,273.184)"><rect width="9.125" height="12" x="-9.125" y="-6"/></g><g fill="none" stroke="#000" stroke-linecap="round" stroke-linejoin="round" stroke-opacity="1" stroke-width=".45" font-family="Noto Sans" font-size="41.667" font-style="normal" font-weight="400" transform="matrix(4.16438,0,0,4.16438,-478.822,-266.521)"><polyline fill="none" points="252 115.2 252 126" vector-effect="none"/></g><g fill="none" stroke="#000" stroke-linecap="square" stroke-linejoin="bevel" stroke-opacity="1" stroke-width="1" font-family="Noto Sans" font-size="8" font-style="normal" font-weight="400"><text x="-9.125" y="3" fill="#000" fill-opacity="1" stroke="none" font-family="Noto Sans" font-size="8" font-style="normal" font-weight="400" transform="matrix(0,-2.45928,2.45928,0,570.603,273.184)" xml:space="preserve">18</text></g><g fill="none" stroke="#000" stroke-linecap="square" stroke-linejoin="bevel" stroke-opacity="0" stroke-width="1" font-family="Noto Sans" font-size="8" font-style="normal" font-weight="400" transform="matrix(0,-2.45928,2.45928,0,570.603,273.184)"><rect width="9.125" height="12" x="-9.125" y="-6"/></g><g fill="none" stroke="#000" stroke-linecap="round" stroke-linejoin="round" stroke-opacity="1" stroke-width=".45" font-family="Noto Sans" font-size="41.667" font-style="normal" font-weight="400" transform="matrix(4.16438,0,0,4.16438,-478.822,-266.521)"><polyline fill="none" points="208.8 115.2 208.8 126" vector-effect="none"/></g><g fill="none" stroke="#000" stroke-linecap="square" stroke-linejoin="bevel" stroke-opacity="1" stroke-width="1" font-family="Noto Sans" font-size="8" font-style="normal" font-weight="400"><text x="-9.125" y="3" fill="#000" fill-opacity="1" stroke="none" font-family="Noto Sans" font-size="8" font-style="normal" font-weight="400" transform="matrix(0,-2.45928,2.45928,0,390.701,273.184)" xml:space="preserve">12</text></g><g fill="none" stroke="#000" stroke-linecap="square" stroke-linejoin="bevel" stroke-opacity="0" stroke-width="1" font-family="Noto Sans" font-size="8" font-style="normal" font-weight="400" transform="matrix(0,-2.45928,2.45928,0,390.701,273.184)"><rect width="9.125" height="12" x="-9.125" y="-6"/></g><g fill="none" stroke="#000" stroke-linecap="round" stroke-linejoin="round" stroke-opacity="1" stroke-width=".45" font-family="Noto Sans" font-size="41.667" font-style="normal" font-weight="400" transform="matrix(4.16438,0,0,4.16438,-478.822,-266.521)"><polyline fill="none" points="201.6 115.2 201.6 126" vector-effect="none"/></g><g fill="none" stroke="#000" stroke-linecap="square" stroke-linejoin="bevel" stroke-opacity="1" stroke-width="1" font-family="Noto Sans" font-size="8" font-style="normal" font-weight="400"><text x="-9.125" y="3" fill="#000" fill-opacity="1" stroke="none" font-family="Noto Sans" font-size="8" font-style="normal" font-weight="400" transform="matrix(0,-2.45928,2.45928,0,360.718,273.184)" xml:space="preserve">11</text></g><g fill="none" stroke="#000" stroke-linecap="square" stroke-linejoin="bevel" stroke-opacity="0" stroke-width="1" font-family="Noto Sans" font-size="8" font-style="normal" font-weight="400" transform="matrix(0,-2.45928,2.45928,0,360.718,273.184)"><rect width="9.125" height="12" x="-9.125" y="-6"/></g><g fill="none" stroke="#000" stroke-linecap="round" stroke-linejoin="round" stroke-opacity="1" stroke-width=".45" font-family="Noto Sans" font-size="41.667" font-style="normal" font-weight="400" transform="matrix(4.16438,0,0,4.16438,-478.822,-266.521)"><polyline fill="none" points="129.6 115.2 129.6 126" vector-effect="none"/></g><g fill="none" stroke="#000" stroke-linecap="square" stroke-linejoin="bevel" stroke-opacity="1" stroke-width="1" font-family="Noto Sans" font-size="8" font-style="normal" font-weight="400"><text x="-4.563" y="3" fill="#000" fill-opacity="1" stroke="none" font-family="Noto Sans" font-size="8" font-style="normal" font-weight="400" transform="matrix(0,-2.45928,2.45928,0,60.8822,273.184)" xml:space="preserve">1</text></g><g fill="none" stroke="#000" stroke-linecap="square" stroke-linejoin="bevel" stroke-opacity="0" stroke-width="1" font-family="Noto Sans" font-size="8" font-style="normal" font-weight="400" transform="matrix(0,-2.45928,2.45928,0,60.8822,273.184)"><rect width="4.563" height="12" x="-4.563" y="-6"/></g><g fill="none" stroke="#000" stroke-linecap="round" stroke-linejoin="round" stroke-opacity="1" stroke-width=".45" font-family="Noto Sans" font-size="41.667" font-style="normal" font-weight="400" transform="matrix(4.16438,0,0,4.16438,-478.822,-266.521)"><polyline fill="none" points="172.8 115.2 172.8 126" vector-effect="none"/></g><g fill="none" stroke="#000" stroke-linecap="square" stroke-linejoin="bevel" stroke-opacity="1" stroke-width="1" font-family="Noto Sans" font-size="8" font-style="normal" font-weight="400"><text x="-4.563" y="3" fill="#000" fill-opacity="1" stroke="none" font-family="Noto Sans" font-size="8" font-style="normal" font-weight="400" transform="matrix(0,-2.45928,2.45928,0,240.784,273.184)" xml:space="preserve">7</text></g><g fill="none" stroke="#000" stroke-linecap="square" stroke-linejoin="bevel" stroke-opacity="0" stroke-width="1" font-family="Noto Sans" font-size="8" font-style="normal" font-weight="400" transform="matrix(0,-2.45928,2.45928,0,240.784,273.184)"><rect width="4.563" height="12" x="-4.563" y="-6"/></g><g fill="none" stroke="#000" stroke-linecap="square" stroke-linejoin="bevel" stroke-opacity="1" stroke-width="1" font-family="Noto Sans" font-size="8" font-style="normal" font-weight="400"><text x="0" y="-3" fill="#000" fill-opacity="1" stroke="none" font-family="Noto Sans" font-size="8" font-style="normal" font-weight="400" transform="matrix(0,-2.49863,2.49863,0,258.774,129.64)" xml:space="preserve">R1</text></g><g fill="none" stroke="#000" stroke-linecap="square" stroke-linejoin="bevel" stroke-opacity="0" stroke-width="1" font-family="Noto Sans" font-size="8" font-style="normal" font-weight="400" transform="matrix(0,-2.49863,2.49863,0,258.774,129.64)"><rect width="9.531" height="12" x="0" y="-12"/></g><g fill="none" stroke="#000" stroke-linecap="square" stroke-linejoin="bevel" stroke-opacity="1" stroke-width="1" font-family="Noto Sans" font-size="8" font-style="normal" font-weight="400"><text x="0" y="9" fill="#000" fill-opacity="1" stroke="none" font-family="Noto Sans" font-size="8" font-style="normal" font-weight="400" transform="matrix(0,-2.49863,2.49863,0,282.761,129.64)" xml:space="preserve">1k</text></g><g fill="none" stroke="#000" stroke-linecap="square" stroke-linejoin="bevel" stroke-opacity="0" stroke-width="1" font-family="Noto Sans" font-size="8" font-style="normal" font-weight="400" transform="matrix(0,-2.49863,2.49863,0,282.761,129.64)"><rect width="9.828" height="12" x="0" y="0"/></g><g fill="none" stroke="#000" stroke-linecap="square" stroke-linejoin="bevel" stroke-opacity="1" stroke-width="1" font-family="Noto Sans" font-size="8" font-style="normal" font-weight="400"><text x="0" y="-3" fill="#000" fill-opacity="1" stroke="none" font-family="Noto Sans" font-size="8" font-style="normal" font-weight="400" transform="matrix(0,-2.49863,2.49863,0,70.798,93.2822)" xml:space="preserve">LED1</text></g><g fill="none" stroke="#000" stroke-linecap="square" stroke-linejoin="bevel" stroke-opacity="0" stroke-width="1" font-family="Noto Sans" font-size="8" font-style="normal" font-weight="400" transform="matrix(0,-2.49863,2.49863,0,70.798,93.2822)"><rect width="19.016" height="12" x="0" y="-12"/></g><g fill="none" stroke="#000" stroke-linecap="square" stroke-linejoin="bevel" stroke-opacity="1" stroke-width="1" font-family="Noto Sans" font-size="8" font-style="normal" font-weight="400"><text x="-3.359" y="-3" fill="#000" fill-opacity="1" stroke="none" font-family="Noto Sans" font-size="8" font-style="normal" font-weight="400" transform="matrix(0,-2.49863,2.49863,0,30.8986,273.184)" xml:space="preserve">J1</text></g><g fill="none" stroke="#000" stroke-linecap="square" stroke-linejoin="bevel" stroke-opacity="0" stroke-width="1" font-family="Noto Sans" font-size="8" font-style="normal" font-weight="400" transform="matrix(0,-2.49863,2.49863,0,30.8986,273.184)"><rect width="6.734" height="12" x="-3.367" y="-12"/></g><g fill="none" stroke="#000" stroke-linecap="round" stroke-linejoin="round" stroke-opacity="1" stroke-width=".45" font-family="Noto Sans" font-size="41.667" font-style="normal" font-weight="400" transform="matrix(4.16438,0,0,4.16438,-478.822,-266.521)"><polyline fill="none" points="136.8 93.6 136.8 115.2" vector-effect="none"/><polyline fill="none" points="180 100.8 180 115.2" vector-effect="none"/><polyline fill="none" points="136.8 79.2 136.8 64.8" vector-effect="none"/><polyline fill="none" points="180 72 180 64.8" vector-effect="none"/><polyline fill="none" points="180 64.8 136.8 64.8" vector-effect="none"/></g><g fill="none" stroke="#000" stroke-linecap="square" stroke-linejoin="bevel" stroke-opacity="1" stroke-width="1" font-family="Noto Sans Mono" font-size="4" font-style="normal" font-weight="400"><text x="0" y="-2" fill="#000" fill-opacity="1" stroke="none" font-family="Noto Sans Mono" font-size="4" font-style="normal" font-weight="400" transform="matrix(0,-4.16438,4.16438,0,90.8658,213.216)" xml:space="preserve">A7</text></g><g fill="none" stroke="#000" stroke-linecap="square" stroke-linejoin="bevel" stroke-opacity="0" stroke-width="1" font-family="Noto Sans Mono" font-size="4" font-style="normal" font-weight="400" transform="matrix(0,-4.16438,4.16438,0,90.8658,213.216)"><rect width="5.781" height="7" x="0" y="-7"/></g><g fill="none" stroke="#000" stroke-linecap="square" stroke-linejoin="bevel" stroke-opacity="1" stroke-width="1" font-family="Noto Sans Mono" font-size="4" font-style="normal" font-weight="400"><text x="0" y="-2" fill="#000" fill-opacity="1" stroke="none" font-family="Noto Sans Mono" font-size="4" font-style="normal" font-weight="400" transform="matrix(0,-4.16438,4.16438,0,270.767,213.216)" xml:space="preserve">GND</text></g><g fill="none" stroke="#000" stroke-linecap="square" stroke-linejoin="bevel" stroke-opacity="0" stroke-width="1" font-family="Noto Sans Mono" font-size="4" font-style="normal" font-weight="400" transform="matrix(0,-4.16438,4.16438,0,270.767,213.216)"><rect width="8.172" height="7" x="0" y="-7"/></g></g></svg>